Patient4_TMGait_0pt2_02_right_11_GRF.mot
version=1
nRows=39
nColumns=19
inDegrees=no
endheader
time	F1x	F1y	F1z	M1x	M1y	M1z	F2x	F2y	F2z	M2x	M2y	M2z	EC1x	EC1y	EC1z	EC2x	EC2y	EC2z
24.11	-2.3807	549.6074	39.6471	-178.0455	-40.2094	532.8363	21.0467	240.5286	-21.97	87.6802	12.3029	204.9179	-0.0592	0.0182	-0.0073	-0.0462	0.0165	0.9585
24.1349	-2.4517	563.0405	40.7757	-182.2348	-40.6075	543.6776	19.0769	233.1277	-21.4218	85.0761	12.2538	197.8594	-0.0592	0.0182	-0.0073	-0.0462	0.0165	0.9585
24.1597	-2.3374	579.7956	42.1797	-187.5267	-41.1535	557.3341	17.3144	223.4094	-20.7571	81.6109	12.0539	188.9497	-0.0592	0.0182	-0.0073	-0.0462	0.0165	0.9585
24.1846	-1.9819	599.7359	43.8572	-193.9002	-41.8588	573.6458	15.7202	211.1671	-19.9252	77.2037	11.6937	178.0823	-0.0592	0.0182	-0.0073	-0.0462	0.0165	0.9585
24.2094	-1.3166	622.6656	45.8015	-201.3125	-42.7139	592.3425	14.1278	196.2303	-18.8709	71.7918	11.1926	165.1351	-0.0592	0.0182	-0.0073	-0.0462	0.0165	0.9585
24.2343	-0.25562	648.2499	48.0003	-209.6719	-43.691	613.0023	12.3469	178.5729	-17.5607	65.3689	10.5865	150.0742	-0.0592	0.0182	-0.0073	-0.0462	0.0165	0.9585
24.2591	1.279	675.8605	50.4335	-218.7837	-44.7509	634.9496	10.2406	158.4034	-15.9896	58.0156	9.9114	133.0385	-0.0592	0.0182	-0.0073	-0.0462	0.0165	0.9585
24.284	3.3292	704.4175	53.0766	-228.2936	-45.8575	657.151	7.794	136.1851	-14.1671	49.905	9.1721	114.3622	-0.0592	0.0182	-0.0073	-0.0462	0.0165	0.9585
24.3089	5.8957	732.3704	55.8975	-237.6822	-46.9801	678.2083	5.1468	112.6518	-12.1139	41.3088	8.3315	94.6007	-0.0592	0.0182	-0.0073	-0.0462	0.0165	0.9585
24.3337	8.9488	757.8168	58.8157	-246.3115	-48.052	696.4623	2.5679	88.7495	-9.8761	32.5738	7.3289	74.4938	-0.0592	0.0182	-0.0073	-0.0462	0.0165	0.9585
24.3586	12.4314	778.7101	61.6829	-253.499	-48.9491	710.1733	0.41257	65.5428	-7.5429	24.0864	6.1059	54.892	-0.0592	0.0182	-0.0073	-0.0462	0.0165	0.9585
24.3834	16.2628	793.1519	64.2983	-258.6172	-49.5004	717.7747	-0.99208	44.1151	-5.2496	16.2363	4.6502	36.6753	-0.0592	0.0182	-0.0073	-0.0462	0.0165	0.9585
24.4083	20.3503	799.8236	66.4298	-261.2354	-49.5085	718.2439	-1.4991	25.4203	-3.1628	9.363	3.0415	20.6302	-0.0592	0.0182	-0.0073	-0.0462	0.0165	0.9585
24.4331	24.5823	798.4284	67.8524	-261.2625	-48.7917	711.4647	-1.3079	10.1314	-1.4388	3.7075	1.4797	7.3364	-0.0592	0.0182	-0.0073	-0.0462	0.0165	0.9585
24.458	28.8317	789.8735	68.4134	-259.0067	-47.2495	698.3547	-0.7841	-1.4756	-0.16993	-0.62463	0.18106	-2.9085	-0.0592	0.0182	-0.0073	-0.0462	0.0165	0.9585
24.4829	32.959	776.045	68.0733	-255.0996	-44.8959	680.6502	-0.23252	-9.261	0.59537	-3.5627	-0.68499	-9.8637	-0.0592	0.0182	-0.0073	-0.0462	0.0165	0.9585
24.5077	36.8135	759.2245	66.9031	-250.3009	-41.8553	660.3892	0.09613	-12.8055	0.80887	-4.9169	-0.95512	-12.9721	-0.0592	0.0182	-0.0073	-0.0462	0.0165	0.9585
24.5326	40.2542	741.3613	65.0672	-245.25	-38.3421	639.2913	-0.016563	-11.1247	0.39723	-4.2722	-0.44229	-11.1015	-0.0592	0.0182	-0.0073	-0.0462	0.0165	0.9585
24.5574	43.1659	723.266	62.7892	-240.1864	-34.6222	618.0995	-0.76761	-2.5422	-0.75288	-0.93815	1.0765	-2.4393	-0.0592	0.0182	-0.0073	-0.0462	0.0165	0.9585
24.5823	45.4276	704.0107	60.2685	-234.7441	-30.9508	596.1298	-2.3218	15.2327	-2.782	6.0229	3.84	15.4206	-0.0592	0.0182	-0.0073	-0.0462	0.0165	0.9585
24.6071	46.8481	680.8877	57.5955	-227.935	-27.5208	571.2997	-4.7853	44.7719	-5.8131	17.6654	8.0427	45.1409	-0.0592	0.0182	-0.0073	-0.0462	0.0165	0.9585
24.632	47.1489	650.0986	54.7206	-218.3924	-24.44	540.7205	-8.1487	88.2566	-9.8747	34.8951	13.732	88.9597	-0.0592	0.0182	-0.0073	-0.0462	0.0165	0.9585
24.6569	46.0385	608.1731	51.4482	-204.874	-21.7003	501.8237	-12.2169	146.394	-14.7893	58.0425	20.6625	147.602	-0.0592	0.0182	-0.0073	-0.0462	0.0165	0.9585
24.6817	43.3779	553.7352	47.5069	-186.8911	-19.1712	453.7284	-16.9493	217.2479	-20.0127	86.3954	28.2604	219.0887	-0.0592	0.0182	-0.0073	-0.0462	0.0165	0.9585
24.7066	39.3443	488.5442	42.7154	-165.0676	-16.6656	397.9899	-22.8577	295.9338	-24.8865	118.039	36.0382	298.4564	-0.0592	0.0182	-0.0073	-0.0462	0.0165	0.9585
24.7314	34.418	416.9631	37.1535	-140.9348	-14.0721	338.1124	-29.6752	375.9409	-29.158	150.3466	43.585	379.065	-0.0592	0.0182	-0.0073	-0.0462	0.0165	0.9585
24.7563	29.1575	344.4259	31.1191	-116.3904	-11.3945	278.3341	-36.3944	451.6912	-32.694	181.0358	50.3087	455.1034	-0.0592	0.0182	-0.0073	-0.0462	0.0165	0.9585
24.7811	23.9894	275.8422	24.9489	-93.1504	-8.6951	222.4091	-41.9976	519.2916	-35.2808	208.5078	55.5448	522.4638	-0.0592	0.0182	-0.0073	-0.0462	0.0165	0.9585
24.806	19.2151	214.7958	18.9437	-72.4738	-6.0465	173.0043	-45.8316	576.5128	-36.8227	231.8303	58.909	578.7946	-0.0592	0.0182	-0.0073	-0.0462	0.0165	0.9585
24.8309	15.0556	163.3039	13.3941	-55.0701	-3.5479	131.5415	-47.7025	622.6013	-37.4153	250.6603	60.4101	623.3168	-0.0592	0.0182	-0.0073	-0.0462	0.0165	0.9585
24.8557	11.6524	121.8893	8.5766	-41.1198	-1.3304	98.2846	-47.7957	658.0436	-37.2562	265.1591	60.3292	656.559	-0.0592	0.0182	-0.0073	-0.0462	0.0165	0.9585
24.8806	9.0719	89.9101	4.6907	-30.395	0.49248	72.6186	-46.4559	684.1815	-36.5415	275.8449	59.0191	679.9243	-0.0592	0.0182	-0.0073	-0.0462	0.0165	0.9585
24.9054	7.3057	66.0873	1.7864	-22.4476	1.8833	53.4654	-44.0168	702.7044	-35.4252	283.3884	56.7887	695.1622	-0.0592	0.0182	-0.0073	-0.0462	0.0165	0.9585
24.9303	6.2655	48.9544	-0.21431	-16.7662	2.8691	39.6333	-40.739	715.2041	-34.0411	288.4314	53.8984	703.9362	-0.0592	0.0182	-0.0073	-0.0462	0.0165	0.9585
24.9551	5.7977	37.0975	-1.4387	-12.8592	3.491	29.997	-36.8185	722.9723	-32.5232	291.5008	50.5847	707.6429	-0.0592	0.0182	-0.0073	-0.0462	0.0165	0.9585
24.98	5.7127	29.2523	-2.0135	-10.2904	3.7768	23.5574	-32.4245	727.0013	-31.0071	293.0049	47.073	707.4303	-0.0592	0.0182	-0.0073	-0.0462	0.0165	0.9585
25.0049	5.8201	24.3254	-2.0597	-8.6846	3.7484	19.457	-27.7904	728.0455	-29.6332	293.2542	43.6126	704.2758	-0.0592	0.0182	-0.0073	-0.0462	0.0165	0.9585
25.0297	5.9513	21.4056	-1.6956	-7.7301	3.432	16.9853	-23.2634	726.8027	-28.5402	292.5341	40.493	699.1343	-0.0592	0.0182	-0.0073	-0.0462	0.0165	0.9585
25.0546	5.9722	19.7614	-1.031	-7.1775	2.857	15.5721	-19.2281	724.2123	-27.8402	291.2324	37.9909	693.1464	-0.0592	0.0182	-0.0073	-0.0462	0.0165	0.9585
